<svg xmlns="http://www.w3.org/2000/svg" width="22" height="12" viewBox="0 0 22 12">
    <g fill="none" fill-rule="evenodd">
        <g fill="#00AF3F" fill-rule="nonzero">
            <path d="M6.938 20.39V2.11c0-.751-.504-1.36-1.125-1.36-.622 0-1.125.609-1.125 1.36v18.28c0 .751.503 1.36 1.125 1.36.62 0 1.125-.609 1.125-1.36z" transform="matrix(-1 0 0 1 23 -6) rotate(90 8.25 15)"/>
            <path d="M5.582 3.535l3.347 3.687c.48.528 1.293.564 1.817.08.523-.485.558-1.306.078-1.834L6.53.738c-.51-.562-1.386-.562-1.896 0L.338 5.467c-.48.528-.445 1.349.079 1.833.523.485 1.336.45 1.816-.079l3.349-3.687z" transform="matrix(-1 0 0 1 23 -6) rotate(90 8.25 15)"/>
        </g>
        <path d="M0 0H24V24H0z" transform="matrix(-1 0 0 1 23 -6)"/>
    </g>
</svg>
