<svg xmlns="http://www.w3.org/2000/svg" width="24" height="24" viewBox="0 0 24 24">
    <g fill="#09C">
        <path d="M22.931 11.869C22.931 5.76 17.978.808 11.869.808 5.76.808.808 5.76.808 11.869c0 6.11 4.952 11.062 11.061 11.062 6.11 0 11.062-4.953 11.062-11.062zm.692 0c0 6.492-5.262 11.754-11.754 11.754-6.491 0-11.754-5.262-11.754-11.754C.115 5.378 5.378.115 11.87.115c6.492 0 11.754 5.263 11.754 11.754z"/>
        <g>
            <path d="M9.346 7.847l.015 4.07c0 .443-.36.802-.803.802H1.232c-.443 0-.803-.36-.803-.802V1.45c0-.444.36-.803.803-.803h7.326c.444 0 .803.36.803.803l-.015 1.315.692.008.015-1.32c0-.829-.67-1.498-1.495-1.498H1.232c-.826 0-1.495.67-1.495 1.495v10.467c0 .825.67 1.494 1.495 1.494h7.326c.826 0 1.495-.669 1.495-1.494l-.015-4.072-.692.002z" transform="translate(5.538 5.077)"/>
            <path d="M4.946 11.423h3.431c.191 0 .346-.155.346-.346 0-.191-.155-.346-.346-.346h-3.43c-.192 0-.347.155-.347.346 0 .191.155.346.346.346zM13.03 1.718L11.337.706 7.98 6.349c-.213.356-.483.8-.81 1.332l1.69 1.01 4.17-6.973zM8.803 9.464L6.515 8.096c-.166-.1-.219-.315-.117-.479.408-.664.738-1.205.987-1.623L10.92.054c.098-.165.311-.219.475-.12l2.288 1.368c.164.098.218.31.12.474L9.277 9.344c-.098.164-.31.218-.474.12z" transform="translate(5.538 5.077)"/>
            <path d="M6.316 7.861c-.012-.275.287-.453.523-.312l2.265 1.354c.236.141.22.489-.027.609l-2.161 1.044c-.225.109-.486-.048-.497-.296L6.316 7.86zm.772 1.843l1.11-.536-1.163-.695.053 1.231z" transform="translate(5.538 5.077)"/>
        </g>
    </g>
</svg>
