<svg xmlns="http://www.w3.org/2000/svg" width="16" height="22" viewBox="0 0 16 22">
    <g fill="#09C">
        <path d="M15.87 4.718L11.425.134C11.342.048 11.23 0 11.111 0H1.778C.798 0 0 .822 0 1.833v18.334C0 21.177.797 22 1.778 22h12.444c.98 0 1.778-.822 1.778-1.833V5.042c0-.122-.047-.238-.13-.324zm-4.314-3.153l2.927 3.018h-2.039c-.49 0-.888-.411-.888-.916V1.565zm3.555 18.602c0 .505-.399.916-.889.916H1.778c-.49 0-.89-.411-.89-.916V1.833c0-.505.4-.916.89-.916h8.889v2.75c0 1.01.797 1.833 1.777 1.833h2.667v14.667z"/>
        <path d="M9.937 11.565c-.321-.303-.627-.615-.83-.86-.265-.317-.5-.625-.705-.918.32-1.184.46-1.795.46-2.12C8.861 6.284 8.444 6 7.818 6c-.475 0-1.041.296-1.041 1.707 0 .621.284 1.376.846 2.253-.138.505-.3 1.086-.481 1.742-.087.314-.182.605-.283.875-.082.043-.16.088-.238.134-.276.165-.538.314-.78.453C4.731 13.794 4 14.21 4 15.033c0 .597.54.967 1.042.967.645 0 1.62-1.035 2.332-2.778.74-.35 1.658-.61 2.384-.771.58.536 1.223 1.049 1.534 1.049.86 0 1.041-.597 1.041-1.098 0-.985-.938-.985-1.389-.985-.14 0-.515.05-1.007.148zm-4.895 3.602c-.199 0-.333-.113-.348-.134 0-.296.735-.713 1.445-1.117l.137-.077c-.522.907-1.037 1.328-1.234 1.328zm2.43-7.46c0-.874.226-.874.347-.874.246 0 .348 0 .348.834 0 .175-.098.615-.277 1.301-.272-.504-.418-.935-.418-1.261zm.266 4.478c.022-.072.043-.146.063-.22.13-.464.245-.88.349-1.256.144.19.3.386.466.586.065.078.226.254.441.474-.428.112-.883.25-1.319.416zm3.9.217c0 .187 0 .265-.321.267-.095-.024-.314-.179-.583-.4.098-.012.17-.019.21-.019.513 0 .659.06.695.152z"/>
    </g>
</svg>
