<svg xmlns="http://www.w3.org/2000/svg" xmlns:xlink="http://www.w3.org/1999/xlink" width="176" height="171" viewBox="0 0 176 171">
    <defs>
        <path id="prefix__a" d="M0 147.876L146.251 147.876 146.251 0.217 0 0.217z"/>
        <path id="prefix__c" d="M0.154 0.146L27.09 0.146 27.09 26.661 0.154 26.661z"/>
        <path id="prefix__e" d="M0 147.876L145.919 147.876 145.919 0.217 0 0.217z"/>
    </defs>
    <g fill="none" fill-rule="evenodd">
        <path fill="#DAF0F9" fill-opacity=".3" d="M95.135 0C70.038 0 46.837 11.083 31.383 30.464v-.028l-.466.589c-.096.131-.195.26-.289.387-.082.13-.162.218-.229.31l-.188.256C10.442 57.583 0 88.058 0 120.136c0 6.625.467 13.406 1.416 20.085l.067.153c1.031 13.047 10.807 23.911 23.867 26.557l.214.102c10.05 2.03 20.313 3.07 30.496 3.07 27.463 0 54.339-7.359 77.696-21.304l.144-.075c25.995-13.937 42.1-40.545 42.1-69.527C176 35.512 139.725 0 95.135 0"/>
        <g transform="translate(14.515 9.526)">
            <path fill="#009BD0" d="M3.629 13.362L3.629 49.441 32.856 49.441 32.856 47.289 5.793 47.289 5.793 15.514 49.548 15.514 49.548 37.713 51.711 37.713 51.711 13.362z"/>
            <path fill="#009BD0" d="M9.663 45.877L23.134 32.659 21.635 31.179 8.165 44.397zM31.753 31.89L39.275 39.196 40.825 37.594 33.302 30.288z"/>
            <path fill="#009BD0" d="M28.036 37.355H28.08c.779-.01 1.506-.32 2.05-.87l16.915-17.298-1.554-1.473L28.578 35.01c-.14.141-.328.22-.545.224-.24.012-.415-.109-.521-.21L9.302 17.612l-1.507 1.522 18.21 17.41c.547.523 1.269.811 2.031.811"/>
            <mask id="prefix__b" fill="#fff">
                <use xlink:href="#prefix__a"/>
            </mask>
            <path fill="#009BD0" d="M27.075 6.056L29.235 6.056 29.235.217 27.075.217zM42.799 4.623L41.121 3.288 37.233 7.998 38.912 9.333zM19.132 7.997L15.245 3.287 13.566 4.623 17.454 9.333zM17.494 88.85L10.283 81.757 12.867 79.216 17.494 83.766 26.106 75.295 28.69 77.837z" mask="url(#prefix__b)"/>
            <path fill="#009BD0" d="M30.942 90.916l-.303.325c-2.231 2.389-5.136 3.935-8.4 4.472-3.867.637-7.754-.244-10.946-2.477-3.19-2.232-5.303-5.55-5.949-9.342-1.333-7.83 4.079-15.267 12.062-16.579 4.83-.794 9.724.817 13.093 4.31l.31.32 1.576-1.467-.31-.32c-3.867-4.01-9.485-5.859-15.027-4.946C7.883 66.718 1.673 75.256 3.203 84.245c.741 4.355 3.167 8.165 6.83 10.727 2.875 2.012 6.245 3.075 9.745 3.075.937 0 1.885-.078 2.82-.23 3.746-.617 7.08-2.392 9.641-5.135l.304-.325-1.6-1.441z" mask="url(#prefix__b)"/>
            <g>
                <path fill="#DAF0F9" d="M89.605 119.87s-.405-9.047-2.162-22.616c-1.757-13.57 4.19-13.17 8.919-11.574 1.512.51 2.788 3.032 3.826 6.225v-47.68H86.56l.094 3.462H54.15v-3.462H38.53v79.297h53.935l-2.86-3.653z"/>
                <path fill="#009BD0" d="M71.982 142.742l-3.324 1.646v-3.292l3.324 1.646zm-27.634 2.144h22.686v-4.287H44.348v4.287zm-4.76-3.575c0-.393.325-.712.723-.712h2.412v4.286h-2.412c-.398 0-.723-.319-.723-.711v-2.863zm35.598.631h-1.205l-5.77-2.857-.02-.007c-.055-.025-.111-.046-.17-.06h-.006c-.055-.012-.111-.019-.169-.019H43.977c-.077 0-.15.015-.22.035-.071-.02-.145-.035-.221-.035H40.31c-1.294 0-2.347 1.037-2.347 2.312v2.863c0 1.274 1.053 2.31 2.347 2.31h3.225c.016 0 .031-.003.047-.004.016 0 .031.005.047.005h24.216c.061 0 .12-.008.177-.021.017-.004.033-.01.05-.015.04-.012.08-.026.118-.043l.02-.007 5.77-2.857h1.205c.448 0 .812-.36.812-.8 0-.44-.364-.8-.812-.8zM61.095 18.765l3.324-1.645v3.291l-3.324-1.646zm4.948 2.144H88.73v-4.287H66.043v4.287zm27.446-.712c0 .393-.324.712-.723.712h-2.412v-4.287h2.412c.399 0 .723.32.723.712v2.863zm-35.598-.632h1.205l5.77 2.857c.007.004.014.005.02.008.055.025.112.045.172.059l.005.001c.054.011.11.018.168.018h23.87c.077 0 .15-.014.22-.034.07.02.144.034.22.034h3.225c1.294 0 2.347-1.037 2.347-2.311v-2.863c0-1.275-1.053-2.311-2.347-2.311h-3.224c-.017 0-.031.004-.047.005-.017-.001-.032-.005-.048-.005H65.231c-.06 0-.12.008-.177.02l-.05.016c-.04.012-.08.025-.118.043l-.02.007-5.77 2.857H57.89c-.447 0-.812.359-.812.8 0 .44.365.8.812.8z"/>
                <g transform="translate(118.83 42.818)">
                    <mask id="prefix__d" fill="#fff">
                        <use xlink:href="#prefix__c"/>
                    </mask>
                    <path fill="#009BD0" d="M13.622 24.893c-6.437 0-11.672-5.154-11.672-11.49s5.235-11.49 11.672-11.49c6.436 0 11.672 5.154 11.672 11.49s-5.236 11.49-11.672 11.49m0-24.747C6.195.146.154 6.093.154 13.403s6.041 13.258 13.468 13.258c7.426 0 13.468-5.947 13.468-13.258 0-7.31-6.042-13.257-13.468-13.257" mask="url(#prefix__d)"/>
                </g>
                <path fill="#009BD0" d="M132.451 57.105c-.495 0-.897-.396-.897-.884 0-.487.402-.884.897-.884.496 0 .899.397.899.884 0 .488-.403.884-.899.884m.899-3.373V49.15h-1.796v4.582c-.76.267-1.36.857-1.63 1.605h-2.86v1.768h2.86c.371 1.026 1.359 1.768 2.527 1.768 1.486 0 2.694-1.19 2.694-2.652 0-1.15-.753-2.123-1.795-2.489M122.575 57.105c.496 0 .898-.395.898-.884 0-.488-.402-.884-.898-.884s-.898.396-.898.884c0 .489.402.884.898.884M132.451 66.828c.496 0 .899-.396.899-.885 0-.487-.403-.883-.899-.883-.495 0-.897.396-.897.883 0 .49.402.885.897.885M141.43 56.221c0 .488.402.884.898.884s.898-.396.898-.884-.402-.884-.898-.884-.898.396-.898.884M132.451 45.615c-.495 0-.897.395-.897.884 0 .488.402.884.897.884.496 0 .899-.396.899-.884 0-.489-.403-.884-.899-.884M134.247 73.014h-27.839v1.768h27.84c2.475 0 4.489-1.982 4.489-4.42h-1.796c0 1.463-1.208 2.652-2.694 2.652M132.451 29.34l-1.16-1.143c-.351-.345-.92-.345-1.27 0l-1.16 1.143v-5.822h3.59v5.822zm1.796-7.589h-27.839c-2.475 0-4.489 1.982-4.489 4.42v11.958l1.796.07V26.17c0-1.462 1.208-2.652 2.693-2.652h20.656v7.955c0 .357.22.68.555.817.335.136.72.06.978-.192l2.059-2.027 2.059 2.027c.172.17.4.26.635.26.115 0 .232-.023.344-.068.335-.137.553-.46.553-.817v-7.955c1.486 0 2.694 1.19 2.694 2.652v15.91h1.796V26.17c0-2.437-2.015-4.419-4.49-4.419z"/>
                <mask id="prefix__f" fill="#fff">
                    <use xlink:href="#prefix__e"/>
                </mask>
                <path fill="#009BD0" d="M107.306 28.821L110.898 28.821 110.898 27.054 107.306 27.054z" mask="url(#prefix__f)"/>
                <path fill="#009BD0" d="M108.21 28.821L117.188 28.821 117.188 27.054 108.21 27.054zM107.306 39.428L126.167 39.428 126.167 37.66 107.306 37.66zM107.306 50.034L117.188 50.034 117.188 48.266 107.306 48.266zM107.306 55.338L115.392 55.338 115.392 53.57 107.306 53.57zM107.306 67.711L111.801 67.711 111.801 65.944 107.306 65.944z" mask="url(#prefix__f)"/>
                <path fill="#09C" d="M61.985 99.658l-6.79 7.752-3.421-3.2c-1.484-1.389-3.622.82-2.135 2.21 4.974 4.654 4.842 4.724 5.667 4.724.976 0 .498.242 9.026-9.495.559-.638.486-1.6-.162-2.15-.648-.55-1.626-.48-2.185.159zm-1.924 11.012c0 1.262-1.042 2.288-2.324 2.288H49.99c-1.28 0-2.323-1.026-2.323-2.288v-7.626c0-1.262 1.042-2.288 2.323-2.288h6.097c2.047 0 2.05-3.05 0-3.05H49.99c-2.99 0-5.422 2.395-5.422 5.338v7.626c0 2.943 2.433 5.338 5.422 5.338h7.747c2.99 0 5.423-2.395 5.423-5.338 0-2.015-3.099-2.018-3.099 0zm1.924-33.89l-6.79 7.752-3.421-3.2c-1.484-1.388-3.622.82-2.135 2.21 4.911 4.596 4.868 4.773 5.744 4.722.914-.043.412.256 8.949-9.492.559-.638.486-1.6-.162-2.15-.648-.553-1.626-.479-2.185.158zM49.99 93.13h7.747c5.253 0 6.994-6.863 3.873-6.863-.855 0-1.549.683-1.549 1.525 0 1.262-1.042 2.288-2.324 2.288-11.738 0-10.07 1.502-10.07-9.913 0-1.262 1.042-2.288 2.323-2.288h6.097c.856 0 1.55-.684 1.55-1.525 0-.843-.694-1.526-1.55-1.526H49.99c-2.99 0-5.422 2.395-5.422 5.339v7.625c0 2.943 2.433 5.338 5.422 5.338zm11.995-39.228l-6.79 7.753-3.421-3.201c-1.484-1.388-3.622.82-2.135 2.21 4.974 4.654 4.842 4.725 5.667 4.725.976 0 .498.242 9.026-9.495.559-.638.486-1.6-.162-2.15-.648-.552-1.626-.48-2.185.158zm68.421 40.616s-.21-.678-.481-1.376c-1.007-2.6-3.26-6.003-6.693-10.113-.543-.65-1.52-.743-2.181-.21-.66.536-.756 1.497-.212 2.148 3.22 3.855 5.303 6.97 6.191 9.265.23.59.408 1.161.41 1.168 1.102 3.635.58 6.871-.366 12.746-.134.83.442 1.612 1.288 1.744.082.013.164.02.244.02.75 0 1.407-.536 1.529-1.287.984-6.109 1.578-9.796.271-14.105zM99.5 140.544c1.427 2.472 5.229.348 3.8-2.126-1.427-2.471-5.23-.348-3.8 2.126zm-.134-9.161l18.475-5.877c-.04-.174-.055-.357-.03-.544.301-2.21 1.054-6.265 1.781-10.188.547-2.95 1.064-5.737 1.362-7.584.83-5.156 1.247-7.74.562-10.002 0-.002-.121-.386-.276-.785-1.367-3.525-7.361-10.342-13.289-16.342v24.508c0 .436-.19.852-.522 1.142-.331.29-.774.426-1.213.372-.764-.09-1.704-.512-2.854-1.054-1.957-.923-3.813-2.566-4.319-3.823-.81-2.016-1.12-4.404-1.42-6.714-.626-4.836-1.204-7.822-3.945-8.517-.911-.232-2.322-.144-3.304.862-1.064 1.09-2.479 4.133.005 12.274.614 2.019.495 17.162.98 19.192.198.804 2.117 3.762 2.57 4.46.056.079 2.666 4.049 4.009 6.169.552.888 1.038 1.715 1.428 2.45zm-5.554-3.173c-.746-1.143-1.218-1.852-2.003-3.051H38.37c-.856 0-1.55-.683-1.55-1.525v-79.31c0-.842.694-1.525 1.55-1.525h13.943v-3.05h-15.74c-1.573 0-2.852 1.259-2.852 2.806v82.848c0 1.547 1.28 2.807 2.851 2.807h57.24zM55.413 39.24v6.61H84.85v-6.61c0-1.4-1.158-2.541-2.581-2.541H57.995c-1.423 0-2.582 1.14-2.582 2.542zm7.747-5.591h13.944c0-1.623.269-3.05-1.033-3.05H64.193c-.57 0-1.033.455-1.033 1.016v2.034zM94.45 83.022c2.123.537 3.459 1.8 4.343 3.424V45.85H87.95v1.525c0 .842-.694 1.525-1.55 1.525H53.865c-.856 0-1.55-.683-1.55-1.525V45.85H39.92v76.259h49.948c-.481-.798-1.307-2.204-1.525-3.104-.568-2.386-.503-17.4-.934-19.026-4.372-14.328 2.046-18.226 7.042-16.957zm7.69-43.273H87.95v3.05h12.395c.856 0 1.55.683 1.55 1.525v55.674l.03.085c.151.317 1.208 1.455 2.776 2.195.046.02.097.045.153.071 0-27.98-.078-26.094.139-26.59V42.555c0-1.547-1.279-2.806-2.85-2.806zm23.788 91.401c.263.802-.184 1.661-.998 1.921-.814.256-1.688-.18-1.95-.982l-1.49-4.539-25.264 8.037 3.38 10.294c.263.803-.184 1.662-.998 1.92-.828.262-1.691-.19-1.95-.981-4.21-12.82-4.164-12.134-3.762-12.91.188-.36.512-.633.903-.757l2.573-.819c-.188-.337-.398-.696-.626-1.074H36.573c-3.28 0-5.95-2.628-5.95-5.857V42.555c0-3.229 2.67-5.856 5.95-5.856h16.369c1.8-3.454 5.25-3.05 7.12-3.05v-2.034c0-2.243 1.853-4.067 4.13-4.067h11.88c2.277 0 4.13 1.824 4.13 4.067v2.034c1.89 0 5.32-.404 7.12 3.05h14.82c3.28 0 5.948 2.627 5.948 5.856v33.302c4.573 4.499 14 14.183 16.045 19.46.196.503.347.987.347.987.89 2.938.437 5.752-.466 11.357-.305 1.889-.824 4.693-1.375 7.66-.633 3.412-1.285 6.923-1.632 9.177l1.003-.319c.39-.124.817-.09 1.182.094.366.184.643.503.769.888l1.966 5.99zM49.99 70.253h7.747c5.253 0 6.994-6.864 3.873-6.864-.855 0-1.549.683-1.549 1.526 0 1.261-1.042 2.287-2.324 2.287H49.99c-1.28 0-2.323-1.026-2.323-2.287 0-11.246-1.273-9.914 8.42-9.914 2.047 0 2.05-3.05 0-3.05H49.99c-2.99 0-5.422 2.395-5.422 5.338v7.626c0 2.943 2.433 5.338 5.422 5.338zm28.663 38.13h-9.296c-2.047 0-2.05 3.05 0 3.05h9.296c.856 0 1.55-.683 1.55-1.526 0-.842-.694-1.525-1.55-1.525zm3.099-7.627H69.357c-2.047 0-2.05 3.05 0 3.05h12.395c.856 0 1.55-.682 1.55-1.525 0-.842-.694-1.525-1.55-1.525zM69.357 88.555h9.296c.856 0 1.55-.683 1.55-1.525 0-.843-.694-1.525-1.55-1.525h-9.296c-.855 0-1.55.682-1.55 1.525 0 .842.695 1.525 1.55 1.525zm23.24-10.676h-23.24c-.855 0-1.55.683-1.55 1.525 0 .842.695 1.525 1.55 1.525h23.24c2.047 0 2.05-3.05 0-3.05zm-23.24-12.202h13.944c2.047 0 2.05-3.05 0-3.05H69.357c-.855 0-1.55.683-1.55 1.525 0 .842.695 1.525 1.55 1.525zm0-7.626h24.79c2.047 0 2.05-3.05 0-3.05h-24.79c-.855 0-1.55.683-1.55 1.525 0 .842.695 1.525 1.55 1.525zm58.013 53.381c-.856 0-1.55.683-1.55 1.525 0 .842.694 1.525 1.55 1.525.856 0 1.55-.683 1.55-1.525 0-.842-.694-1.525-1.55-1.525z" mask="url(#prefix__f)"/>
                <path fill="#009BD0" d="M1.345 140.208h25.358v-33.766H7.561v5.294c0 .366-.301.662-.673.662H1.345v27.81zm26.03 1.325H.674c-.372 0-.673-.297-.673-.662v-29.135c0-.365.301-.662.673-.662h5.543v-5.294c0-.365.3-.662.672-.662h20.488c.371 0 .672.297.672.662v35.09c0 .366-.3.663-.672.663z" mask="url(#prefix__f)"/>
                <path fill="#009BD0" d="M2.328 111.074h3.888v-3.725l-3.888 3.725zm4.56 1.324H.673c-.274 0-.52-.163-.623-.413-.103-.25-.043-.535.153-.723l6.216-5.956c.194-.185.481-.239.73-.136.25.103.412.344.412.61v5.956c0 .366-.3.662-.673.662zM11.284 110.549L17.501 110.549 17.501 109.225 11.284 109.225zM4.622 117.447L18.716 117.447 18.716 116.123 4.622 116.123zM4.622 121.028L15.984 121.028 15.984 119.704 4.622 119.704zM4.622 124.61L15.147 124.61 15.147 123.286 4.622 123.286zM4.622 128.192L15.717 128.192 15.717 126.868 4.622 126.868zM4.622 131.774L17.837 131.774 17.837 130.449 4.622 130.449zM4.85 135.356L14.392 135.356 14.392 134.032 4.85 134.032zM27.386 134.605c0-.022-.003-.042-.004-.063-.603.108-1.223.166-1.857.167-.647 0-1.281-.062-1.896-.173 0 .023-.004.046-.004.07v3.646h3.76v-3.647z" mask="url(#prefix__f)"/>
                <path fill="#009BD0" d="M24.298 137.59h2.415v-2.283c-.395.042-.792.064-1.186.065-.408-.001-.82-.024-1.229-.07v2.288zm3.087 1.324h-3.76c-.371 0-.672-.296-.672-.662v-3.647l.003-.084c.013-.189.108-.378.26-.493.151-.116.347-.176.535-.144.59.108 1.187.162 1.776.164.575-.002 1.16-.054 1.735-.157.191-.034.386.014.538.132.151.119.244.296.254.486.003.036.004.065.004.096v3.647c0 .366-.301.662-.673.662z" mask="url(#prefix__f)"/>
                <path fill="#009BD0" d="M23.625 135.425v8.445c0 1.022.842 1.85 1.88 1.85 1.039 0 1.88-.828 1.88-1.85v-8.445h-3.76z" mask="url(#prefix__f)"/>
                <path fill="#009BD0" d="M24.298 136.087v7.783c0 .656.542 1.189 1.208 1.189.665 0 1.207-.533 1.207-1.189v-7.783h-2.415zm1.208 10.296c-1.408 0-2.553-1.127-2.553-2.513v-8.445c0-.366.3-.662.672-.662h3.76c.372 0 .673.296.673.662v8.445c0 1.386-1.145 2.513-2.552 2.513z" mask="url(#prefix__f)"/>
                <path fill="#DAF0F9" d="M25.525 131.623c-4 0-7.243-3.193-7.243-7.13 0-3.938 3.243-7.13 7.243-7.13s7.243 3.192 7.241 7.13c.001 3.936-3.24 7.13-7.24 7.13m0-17.346c-5.732 0-10.38 4.574-10.38 10.215s4.648 10.216 10.38 10.218c5.731-.002 10.376-4.577 10.376-10.218 0-5.64-4.644-10.215-10.377-10.215" mask="url(#prefix__f)"/>
                <path fill="#009BD0" d="M25.525 118.024c-3.623 0-6.57 2.902-6.57 6.468 0 3.567 2.947 6.469 6.57 6.469 1.755 0 3.405-.673 4.645-1.895 1.241-1.222 1.924-2.846 1.924-4.574 0-1.728-.683-3.351-1.923-4.573-1.241-1.222-2.89-1.895-4.646-1.895zm0 14.261c-4.365 0-7.916-3.496-7.916-7.793 0-4.296 3.552-7.792 7.916-7.792 2.114 0 4.102.811 5.597 2.283s2.318 3.428 2.317 5.51c0 2.08-.823 4.037-2.317 5.509-1.495 1.472-3.483 2.283-5.597 2.283zm0-17.346c-2.593 0-5.03.993-6.862 2.798-1.834 1.805-2.844 4.204-2.844 6.755 0 5.268 4.354 9.554 9.706 9.556 5.35-.002 9.704-4.288 9.704-9.556 0-5.267-4.353-9.553-9.704-9.553zm0 20.433c-6.093-.001-11.051-4.882-11.051-10.88 0-2.905 1.15-5.636 3.237-7.69 2.087-2.056 4.862-3.187 7.813-3.187h.001c6.092 0 11.05 4.88 11.05 10.877 0 5.998-4.957 10.879-11.05 10.88z" mask="url(#prefix__f)"/>
            </g>
        </g>
    </g>
</svg>
