<svg xmlns="http://www.w3.org/2000/svg" width="44" height="49" viewBox="0 0 44 49">
    <g fill="none" fill-rule="evenodd">
        <g fill="#8B8D8E" fill-rule="nonzero">
            <path d="M19.375 4.455H3.625c-.345 0-.625.249-.625.556 0 .308.28.557.625.557h15.75c.345 0 .625-.25.625-.557 0-.307-.28-.556-.625-.556zM19.421 10.023H13.58c-.32 0-.579.249-.579.557 0 .307.259.556.579.556h5.842c.32 0 .579-.249.579-.556 0-.308-.26-.557-.579-.557zM19.421 14.477H13.58c-.32 0-.579.25-.579.557 0 .308.259.557.579.557h5.842c.32 0 .579-.25.579-.557 0-.307-.26-.557-.579-.557zM19.421 18.932H13.58c-.32 0-.579.25-.579.557 0 .307.259.556.579.556h5.842c.32 0 .579-.249.579-.556 0-.308-.26-.557-.579-.557zM10.421 18.932H4.58c-.32 0-.579.25-.579.557 0 .307.259.556.579.556h5.842c.32 0 .579-.249.579-.556 0-.308-.259-.557-.579-.557zM10.421 8.91H4.58c-.32 0-.579.288-.579.643v6.507c0 .356.259.645.579.645h5.842c.32 0 .579-.289.579-.645V9.553c0-.355-.259-.644-.579-.644zm-.578 6.506H5.157v-5.218h4.686v5.218z" transform="translate(8 11.136)"/>
            <path d="M25.778 3.427h-1.832V1.37C23.946.615 23.398 0 22.724 0H1.222C.548 0 0 .615 0 1.37V23.3c0 1.89 1.37 3.427 3.054 3.427h20.892c1.684 0 3.054-1.537 3.054-3.426V4.797c0-.756-.548-1.37-1.222-1.37zm0 19.874c0 1.133-.822 2.056-1.832 2.056H3.054c-1.01 0-1.832-.923-1.832-2.056V1.37h21.502v20.902c0 .944.685 1.713 1.527 1.713.337 0 .611-.307.611-.685 0-.379-.274-.686-.61-.686-.17 0-.306-.153-.306-.342V4.797h1.832v18.504z" transform="translate(8 11.136)"/>
        </g>
    </g>
</svg>
